Patient4_TMGait_0pt5_02_right_31_EMG.mot
version=1
nRows=36
nColumns=33
inDegrees=no
endheader
time	1LAddLong	2LGlutMax	3LGlutMed	4LIliopsoas	5LSemiMemb	6LBicFemLong	7LRecFem	8LVastMed	9LVastLat	10LGasMed	11LTibAnt	12lTibPost	13LPeroneusLong	14LSol	15LExtDigLong	16LFlexDigLong	17RAddLong	18RGlutMax	19RGlutMed	20RIliopsoas	21RSemiMemb	22RBicFemLong	23RRecFem	24RVastMed	25RVastLat	26RGasMed	27RTibAnt	28RTibPost	29RPeroneusLong	30RSol	31RExtDigLong	32RFlexDigLong
41.885	-0.004578	0.090637	0.007019	0.004578	-0.065308	0.22156	0.12634	0.003662	0.017395	0.012054	0.011597	-0.029144	-0.046387	0.10925	0.012207	-0.061951	-0.009155	-0.036621	0.075378	-0.023193	-0.002289	-0.015259	0.050659	-0.11032	0.012512	0.20508	0.26337	-0.00412	0.0383	-0.073242	-0.000916	0.007782
41.886	0.003052	0.016785	0.05722	0.018921	-0.084686	0.13412	0.12009	-0.004578	0.008545	-0.019379	0.006714	-0.08255	0.001221	0.050354	0.005951	-0.003052	-0.007935	-0.053253	0.15259	0	-0.07431	-0.051575	0.06134	-0.13718	0.019379	0.15335	0.39505	-0.006866	0.00412	-0.088806	-0.001068	0.022583
41.887	0.011902	-0.02182	0.042267	0.018616	-0.013885	0.002289	0.13825	0.004883	-0.002136	-0.042114	-0.000916	0.024109	0.04364	-0.041656	0.020752	0.085907	0.00885	-0.095825	0.092163	-0.00824	-0.13779	-0.029297	0.011292	-0.10391	0.021667	0.11047	0.5188	-0.00824	-0.058136	-0.075378	0	0.015717
41.888	0.015106	-0.019531	0.009613	0.01358	0.04837	-0.10956	0.13107	0.003967	-0.014648	-0.048218	-0.002289	-0.02243	0.036469	-0.19348	0.028381	0.007019	0.018158	-0.080719	-0.10056	-0.019531	-0.19898	-0.029755	0.02121	-0.076599	0.013733	0.071411	0.23834	-0.004578	-0.010376	-0.096893	-0.000305	0.013733
41.889	0.024261	-0.005341	0.036469	0.016022	0.065613	-0.072021	0.06958	0.007629	0.003967	-0.049438	-0.004578	-0.043945	0.026093	-0.14694	0.029602	-0.007935	0.015869	-0.07431	-0.31326	0.012512	-0.20584	-0.033875	0.058136	-0.12161	0.020599	0.046997	-0.46234	-0.002747	0.054474	-0.10773	0.001526	0.010376
41.89	0.014648	-0.020294	-0.030365	0.010986	0.041962	-0.10651	0.036316	0.004578	0.00351	-0.10284	0.000458	-0.028381	-0.058136	0.065918	0.042725	-0.020905	0.026398	-0.11078	-0.06073	0.022125	-0.051727	-0.000458	0.029755	-0.11566	0.015106	0.018768	-0.53986	-0.004272	0.026245	-0.10376	-0.000916	-0.002136
41.891	0.01709	0.023804	0.024109	-0.003357	0.013733	-0.18387	0.074921	0.001526	0.005798	-0.1297	0.002594	0.03067	-0.028839	0.073853	0.019836	-0.016174	0.031281	-0.059052	-0.077209	0.026855	0.15045	0.002441	0.001526	-0.033875	0.025482	0.007019	-0.34546	-0.001068	0.005341	-0.11505	0.000153	-0.001984
41.892	0.009308	0.007477	0.030518	0.013275	0.043945	-0.177	0.083466	0.002289	0.010834	-0.087738	0.010834	0.051422	-0.019989	-0.035858	0.013275	-0.02121	0.037537	-0.085449	-0.067902	0.060577	0.1532	-0.030212	0.002289	-0.075531	0.00412	-0.007172	-0.068359	-0.004425	-0.001831	-0.10117	0.007629	-0.006104
41.893	0.002289	-0.003662	-0.037994	0.011139	0.052643	-0.11444	0.095978	0.003662	0.018616	0.013885	0.003815	-0.10864	-0.11047	-0.062408	0.021973	-0.017548	0.04837	-0.088806	0.25879	0.008087	0.17792	-0.045319	0.024261	-0.035248	0.022736	-0.012817	0.3978	-0.007629	0.10117	-0.11566	-0.001831	-0.011902
41.894	-0.000763	0.035706	-0.02594	0.011139	0.038452	0.062408	0.11231	0.007629	0.007935	0.1445	-0.005188	-0.063019	-0.14572	-0.20966	0.019226	-0.018158	0.035706	-0.12756	0.51773	-0.091858	0.088348	-0.004883	0.014191	-0.072784	0.028687	-0.014648	0.079041	-0.00412	0.22415	-0.14282	0.000763	-0.008545
41.895	-0.005341	0.059204	-0.010376	0.002747	-0.000458	0.12009	0.10162	0.002747	-0.034637	0.26657	0.001373	-0.023041	-0.099487	-0.060425	0.013885	0.05188	-0.012665	-0.049744	0.2095	-0.073242	0.029907	-0.034332	-0.023346	-0.054932	0.032959	-0.024109	-0.6279	-0.00412	0.16342	-0.096893	-0.001221	-0.009155
41.896	-0.004578	0.085907	-0.011902	0.003967	-0.059052	0.041656	0.12329	0.002899	-0.005951	0.33218	0.017395	-0.017853	-0.072021	0.15091	0.009766	0.0383	-0.044556	-0.072632	-0.063629	-0.009613	0.061798	-0.039368	0.004425	-0.043488	0.032043	-0.03418	-0.43381	-0.005646	-0.018158	0.013733	0.014648	-0.011444
41.897	-0.003967	0.091095	-0.021667	0.00412	-0.08606	-0.005646	0.1387	0.005798	0.076904	0.36438	0.021362	0.000458	-0.064545	-0.023346	0.015717	-0.48004	-0.063171	-0.083313	0.074768	-0.032806	0.097046	-0.038147	-0.015717	-0.032501	0.029144	-0.040894	-0.066986	-0.003662	-0.076294	0.10223	-0.001373	-0.013275
41.898	-0.010071	0.093536	-0.032806	0.003052	-0.050201	-0.14008	0.17899	0.02243	0.063171	0.38086	0.000916	-0.000916	0.0177	-0.052338	0.002594	0.065613	-0.048523	-0.044403	0.034943	-0.10971	0.022888	-0.067291	0.018921	-0.027771	0.045013	-0.042114	0.1268	-0.006714	-0.041962	0.1207	0.001526	-0.021667
41.899	-0.010529	0.073547	-0.046387	0.002594	0.072784	-0.16892	0.18051	0.018616	0.075836	0.034943	0.003204	0.005493	0.16022	0.11978	0.010681	0.10605	-0.041809	-0.073395	-0.24078	-0.08255	-0.035706	-0.057526	0.028839	-0.006409	0.042114	-0.039368	0.093079	-0.00061	0.00412	0.054321	-0.00061	-0.013275
41.9	-0.016022	0.093689	-0.068359	0.001373	0.081482	-0.086975	0.18677	0.014038	-0.018616	-0.33844	0.009918	-0.01358	0.13992	-0.016174	0.010529	-0.032196	-0.02243	-0.095978	-0.14084	0.039825	-0.094452	-0.031128	0.022583	-0.004425	0.038605	-0.0354	-0.06012	-0.005035	0.035248	0.056458	-0.000458	-0.010376
41.901	-0.003967	0.07019	-0.045624	0.002289	0.007477	-0.007477	0.11353	0.007019	-0.13245	-0.31494	0.00824	-0.01297	0.034027	-0.020142	-0.007935	0.086975	-0.009003	-0.041351	0.29617	0.16434	-0.028992	-0.065002	-0.012054	-0.043945	0.037689	-0.037689	-0.058746	-0.003052	0.023041	0.054169	0.001678	-0.011597
41.902	0.015411	0.067596	-0.026093	0.000305	-0.014038	0.022278	0.05722	-0.003357	-0.11185	-0.19241	0.011444	-0.013428	-0.02243	0.22232	-0.019073	-0.037994	0.00061	-0.045624	0.047913	0.168	0.11658	-0.071564	-0.04364	-0.052948	0.050354	-0.037231	0.022278	-0.004578	0.022583	0.042572	0.000763	-0.006104
41.903	0.009918	0.0354	-0.080566	0.008392	0.007172	0.064087	0.059204	-0.00824	-0.023651	-0.22308	-0.016785	-0.023193	0.006866	0.25559	-0.016785	-0.062714	0.015259	-0.066528	-0.18112	0.032501	0.14923	-0.066071	-0.016479	-0.04776	0.03891	-0.039978	0.032654	-0.003357	0.006866	0.059967	-0.001068	-0.011902
41.904	0.010529	0.037689	-0.05249	0.006104	0.03006	-0.012207	0.037231	-0.012665	0.012817	-0.10391	-0.030365	-0.02533	0.023041	0.15991	-0.00885	0.23636	0.012665	-0.074768	-0.013275	0.007629	0.054626	-0.028381	-0.016022	-0.052948	0.036774	-0.035095	0.029449	-0.002289	-0.010223	0.047455	0.000153	-0.01358
41.905	0.016174	0.033264	-0.060272	0.007477	-0.0177	0.01709	0.049133	-0.013885	0.020905	-0.011292	-0.029144	0.027466	0.012207	-0.2562	-0.010376	0.070801	0.001831	-0.019989	0.024719	-0.049438	-0.027008	0.027924	-0.021057	-0.052185	0.028076	-0.035858	0.051727	-0.009003	-0.049438	0.024261	-0.001221	-0.016174
41.906	0.019073	0.01297	-0.070038	0.006104	-0.001221	0.005646	0.053406	-0.012512	-0.010681	-0.14542	-0.01297	0.037689	-0.049438	-0.26733	0.019379	-0.1178	0.002136	-0.035858	-0.168	-0.069733	-0.086517	0.010376	-0.014343	-0.083466	0.032959	-0.032501	0.050964	-0.007477	-0.02182	0.001831	0.003357	-0.013123
41.907	0.02594	-0.019226	-0.062714	0.002441	0.050201	0.022125	0.10498	-0.002289	-0.034027	-0.12863	0.001984	0.099487	-0.078125	-0.012207	0.024719	-0.33783	0.006866	-0.060425	-0.21042	-0.00412	-0.063477	-0.013733	-0.007477	-0.043488	0.043945	-0.032196	0.057831	-0.008545	0.038452	0.009155	-0.000763	-0.0177
41.908	-0.031281	0.033112	-0.025024	0.012207	0.080414	0.019836	0.1294	-0.007629	-0.03952	-0.045166	0.005646	0.007324	-0.030518	0.13748	0.00351	-0.046234	0.01236	-0.074615	-0.090332	0.13489	-0.025635	-0.019836	-0.006866	-0.018768	0.010834	-0.028534	0.021667	-0.005493	0.16296	-0.011597	-0.004272	-0.016785
41.909	0.013885	0.025482	-0.014648	0.007629	0.09964	0.005188	0.10025	-0.011444	-0.017548	0.081024	-0.006866	-0.2092	0.034637	-0.13031	-0.003662	-0.02594	0.032196	-0.022278	0.10529	0.14786	-0.02121	-0.050354	-0.008698	-0.091553	0.042419	-0.031586	0.034332	-0.010376	0.34943	-0.015869	-0.001831	-0.013733
41.91	-0.021362	0.021515	0.018005	-0.001221	0.063171	-0.015106	0.13458	0.00061	-0.015717	-0.061646	-0.003967	-0.051727	0.033264	-0.26627	-0.010376	-0.001221	0.049438	-0.019226	0.22827	0.075836	-0.018311	-0.053864	0.006714	-0.091095	0.033112	-0.034943	0.038605	-0.002594	0.30243	-0.023651	0.000763	-0.008698
41.911	0.033417	-0.018768	-0.023041	0.007019	0.031281	-0.02182	0.15121	-0.001678	-0.009155	-0.092468	-0.002136	-0.01358	0.020447	-0.21683	0.004425	0.22537	0.049896	-0.032654	0.29923	-0.037231	-0.054016	-0.016022	0.055847	-0.05249	0.04425	-0.029449	0.029602	-0.006561	0.059967	-0.020905	-0.000153	-0.020294
41.912	0.001831	-0.010071	-0.046387	0.000763	0.010071	-0.012512	0.14008	0.004272	0.010834	0.062561	-0.002289	-0.018616	0.045624	-0.079498	0.00946	0.069885	0.042877	-0.035858	0.095673	-0.054016	-0.075378	0.01358	-0.00412	-0.11154	0.021667	-0.02655	0.038757	0.002136	-0.19104	-0.014801	-0.004272	-0.016479
41.913	0.002594	0.000458	-0.048218	0.010986	0.014954	-0.002747	0.14099	-0.004425	0.029449	0.112	0.002289	-0.009308	0.049744	-0.007172	-0.001373	0.002747	0.04715	-0.066376	-0.36377	0.009155	0.042725	-0.043488	0.026703	-0.12802	0.019073	-0.026093	0.056	-0.006561	-0.37262	-0.031128	0.000916	-0.015717
41.914	0.005646	-0.008545	-0.090485	-0.002747	0.030212	0.023956	0.12482	-0.00061	0.036621	0.051575	0.003052	-0.001068	0.030823	-0.001068	-0.024109	-0.022888	0.037384	-0.056305	-0.49683	0.068054	0.027161	-0.081177	0.011444	-0.1294	0.024261	-0.02121	0.076752	-0.009918	-0.30975	-0.034637	0.00061	-0.012817
41.915	0.002747	-0.007629	-0.063019	-0.007782	0.019531	0.12009	0.13367	0.009003	0.018311	-0.005188	0.000153	0.005035	0.08316	0.079346	-0.014954	-0.039368	0.002747	-0.028076	-0.26093	0.084229	-0.10178	-0.014191	-0.025787	-0.063629	0.046692	-0.024109	0.075684	-0.002289	-0.005341	-0.041962	0.002747	-0.016022
41.916	-0.000153	0.003815	-0.065918	0.006866	0.014038	0.10208	0.14343	0.005646	0.016479	-0.018921	-0.000763	0.006256	0.042419	0.14771	-0.000153	-0.020294	-0.013885	-0.006409	0.34302	0.041962	-0.014648	-0.003662	-0.00412	-0.07431	0.045624	-0.023346	0.056915	-0.00473	0.25314	-0.017395	0	-0.011444
41.917	0.006714	0.01358	-0.028992	0.006866	-0.023346	0.088196	0.15305	0.005646	0.010681	-0.014191	0.004272	0.010681	-0.06958	0.14969	-0.000458	-0.001068	0.002747	-0.075989	0.31952	0.013885	-0.082855	-0.036011	0.02182	-0.11856	0.036011	-0.021667	0.040131	-0.005493	0.28992	-0.045624	0.001221	-0.005493
41.918	0.000916	-0.018616	0.007172	0.001221	-0.055084	0.045471	0.14069	0.005035	0.00824	-0.009155	0.006561	0.004578	-0.16556	0.09491	0.017548	-0.02121	-0.011902	-0.065002	-0.07309	0.00473	-0.28427	-0.053406	0.012207	-0.096283	0.023041	-0.023346	0.049438	-0.007172	0.074158	-0.044861	-0.00061	-0.000305
41.919	0.001831	0.002899	-0.049438	0.002136	-0.028687	-0.004883	0.15289	-0.00351	-0.006866	0.019379	0.007782	-0.015717	-0.13428	0.080872	0.020752	-0.038147	-0.039368	-0.063934	0.07019	0.006714	-0.35065	-0.036316	-0.015259	-0.035858	0.039368	-0.021515	0.059052	-0.003204	-0.084229	-0.05188	0.002441	-0.002289
41.92	0.002747	-0.039368	-0.030975	0.002136	0.015106	-0.074463	0.15411	-0.002136	-0.003967	-0.008545	-0.000153	-0.003052	0.017548	0.006104	0.003662	-0.035858	-0.001526	-0.059662	0.043335	-0.008545	-0.21988	0.019226	-0.03418	-0.024567	0.029449	-0.023193	0.075989	-0.007935	-0.12192	-0.032806	-0.00061	-0.011749
